<svg xmlns="http://www.w3.org/2000/svg" xmlns:xlink="http://www.w3.org/1999/xlink" width="299.421" height="39.453" viewBox="0 0 299.421 39.453">
  <defs>
    <clipPath id="clip-path">
      <path id="Clip_13" data-name="Clip 13" d="M0,0H238.218V39.447H0Z" transform="translate(0.491 0.483)" fill="none"/>
    </clipPath>
    <clipPath id="clip-path-2">
      <path id="Clip_18" data-name="Clip 18" d="M0,0H51.381V39.44H0Z" transform="translate(0.272 0.496)" fill="none"/>
    </clipPath>
    <clipPath id="clip-path-3">
      <path id="Clip_23" data-name="Clip 23" d="M0,0H19.091V2.445H0Z" transform="translate(0.032 0.352)" fill="none"/>
    </clipPath>
  </defs>
  <g id="Logo_7_RGB_Digital" transform="translate(-0.032 -0.483)">
    <path id="Fill_1" data-name="Fill 1" d="M18.278,29.388a11.931,11.931,0,0,1-4.816-1.472,9.883,9.883,0,0,0-3.868-1.2,3.1,3.1,0,0,0-2.194.749l-.307.28-1.41-2.03.2-.214a4.949,4.949,0,0,1,1.749-1.213,11.845,11.845,0,0,1-3.966-2.623A11.723,11.723,0,0,1,.8,17.215,14.663,14.663,0,0,1,0,12.5,12.518,12.518,0,0,1,3.425,3.67,11.948,11.948,0,0,1,12.546,0a12.4,12.4,0,0,1,9.2,3.569,12.327,12.327,0,0,1,3.517,8.985,13.917,13.917,0,0,1-1.1,5.47,11.827,11.827,0,0,1-3.8,4.689,11.355,11.355,0,0,1-4.753,2.174,10.985,10.985,0,0,0,3.627.909,6.341,6.341,0,0,0,1.174-.147l.68-.136-1.615,3.751-.2.032A6.183,6.183,0,0,1,18.278,29.388ZM12.512,3.882A7.282,7.282,0,0,0,6.846,6.335,8.944,8.944,0,0,0,4.635,12.5a9.34,9.34,0,0,0,2.2,6.309,7.237,7.237,0,0,0,5.729,2.517,7.381,7.381,0,0,0,5.783-2.578,9.145,9.145,0,0,0,2.281-6.214A8.782,8.782,0,0,0,18.31,6.382,7.586,7.586,0,0,0,12.512,3.882Z" transform="translate(103.858 5.539)" fill="#0a0b09"/>
    <path id="Fill_2" data-name="Fill 2" d="M16.3,0H9.417V3.609h2.918v8.4a7.267,7.267,0,0,1-4.448,1.955,1.524,1.524,0,0,1-1.013-.325,1.29,1.29,0,0,1-.469-.818,18.558,18.558,0,0,1-.1-2.4V0H0V3.609H2.337v7.223a13.894,13.894,0,0,0,.375,3.816A3.821,3.821,0,0,0,4.3,16.718,5.2,5.2,0,0,0,7.24,17.5a9.058,9.058,0,0,0,5.1-1.816v1.544h6.818V13.622H16.3V0" transform="translate(132.784 13.127)" fill="#0a0b09"/>
    <path id="Fill_3" data-name="Fill 3" d="M2.326,4.632a2.263,2.263,0,0,0,1.638-.675,2.239,2.239,0,0,0,.688-1.649A2.207,2.207,0,0,0,3.962.666,2.276,2.276,0,0,0,2.326,0,2.225,2.225,0,0,0,.656.692,2.269,2.269,0,0,0,0,2.307,2.257,2.257,0,0,0,.677,3.944a2.237,2.237,0,0,0,1.649.688" transform="translate(156.539 5.573)" fill="#0a0b09"/>
    <path id="Fill_4" data-name="Fill 4" d="M6.529,0H0V3.609H2.559V13.622H0v3.609H9.087V13.622H6.529V0" transform="translate(154.441 13.127)" fill="#0a0b09"/>
    <path id="Fill_5" data-name="Fill 5" d="M13.547,11.461a4.769,4.769,0,0,1-4.619,3.032A3.977,3.977,0,0,1,5.47,12.86a6.489,6.489,0,0,1-1.227-3.9A5.561,5.561,0,0,1,5.516,5.148a4.132,4.132,0,0,1,3.276-1.42,4.237,4.237,0,0,1,2.652.879,3.527,3.527,0,0,1,1.32,2.5l.039.319h3.586V.461H12.762v.786A7.412,7.412,0,0,0,8.485,0a8.209,8.209,0,0,0-5.92,2.535A8.692,8.692,0,0,0,0,8.957a9.7,9.7,0,0,0,2.337,6.406,8.022,8.022,0,0,0,6.455,2.807,8.223,8.223,0,0,0,8.094-5.142l.147-.326L13.7,11.133l-.156.328" transform="translate(166.476 12.666)" fill="#0a0b09"/>
    <path id="Fill_6" data-name="Fill 6" d="M9.64,10.617h2.071L6.938,14.424V0H0V3.609H2.968V20.835H0v3.609H9.787V20.835H6.938v-4.18l7.794,7.789H19.5V20.835H16.381l-5.429-5.409,5.784-4.809H19.5v-3.4H9.64v3.4" transform="translate(186.051 5.914)" fill="#0a0b09"/>
    <path id="Fill_7" data-name="Fill 7" d="M10.606,24.445H0V20.75H3.259V3.695H0V0H10a19.925,19.925,0,0,1,4.887.481,5.717,5.717,0,0,1,3.129,2.108,6.361,6.361,0,0,1,1.236,3.98c0,3.167-1.593,5.237-4.736,6.152l3.9,8.028h3.036v3.694H15.726l-5.4-11.083H7.569V20.75h3.037v3.694ZM7.569,3.695V9.667H10a12.1,12.1,0,0,0,2.9-.251,2.515,2.515,0,0,0,1.383-.943,3.172,3.172,0,0,0,.541-1.953,2.723,2.723,0,0,0-.546-1.739A2.314,2.314,0,0,0,12.949,3.9a13.089,13.089,0,0,0-2.706-.2Z" transform="translate(207.418 5.914)" fill="#0a0b09"/>
    <path id="Fill_8" data-name="Fill 8" d="M5.943,17.964a6.115,6.115,0,0,1-4.156-1.556A5.146,5.146,0,0,1,0,12.384a5.192,5.192,0,0,1,1.893-4.1A6.69,6.69,0,0,1,6.386,6.683,8.385,8.385,0,0,1,10.509,7.8V6.809a5.851,5.851,0,0,0-.218-1.823,2.156,2.156,0,0,0-.967-1.039,3.967,3.967,0,0,0-2.1-.491A3.379,3.379,0,0,0,4.008,5.214l-.137.245L.048,4.451l.218-.406C1.7,1.361,4.21,0,7.717,0A9.655,9.655,0,0,1,11.06.526a5.1,5.1,0,0,1,2.174,1.4,4.612,4.612,0,0,1,.97,1.859,13.458,13.458,0,0,1,.241,3.02v7.275h2.781v3.609H10.833V16.131A7.55,7.55,0,0,1,5.943,17.964Zm.682-8.047a2.931,2.931,0,0,0-2.012.7,2.193,2.193,0,0,0-.779,1.754,2.257,2.257,0,0,0,.685,1.685,2.567,2.567,0,0,0,1.9.679,6.037,6.037,0,0,0,4.089-1.773V11.37A6.469,6.469,0,0,0,6.625,9.917Z" transform="translate(231.431 12.666)" fill="#0a0b09"/>
    <path id="Fill_9" data-name="Fill 9" d="M2.326,4.632a2.261,2.261,0,0,0,1.637-.675,2.237,2.237,0,0,0,.689-1.649A2.209,2.209,0,0,0,3.962.666,2.278,2.278,0,0,0,2.326,0,2.226,2.226,0,0,0,.655.692,2.268,2.268,0,0,0,0,2.307,2.258,2.258,0,0,0,.676,3.944a2.238,2.238,0,0,0,1.65.688" transform="translate(253.36 5.573)" fill="#0a0b09"/>
    <path id="Fill_10" data-name="Fill 10" d="M6.529,0H0V3.609H2.559V13.622H0v3.609H9.087V13.622H6.529V0" transform="translate(251.262 13.127)" fill="#0a0b09"/>
    <path id="Fill_11" data-name="Fill 11" d="M11.217,7.654a17.213,17.213,0,0,0-3.716-.9,15.05,15.05,0,0,1-3.171-.71.936.936,0,0,1-.547-.957,1.347,1.347,0,0,1,.666-1.173,3.376,3.376,0,0,1,1.9-.492A3.889,3.889,0,0,1,9.81,5.2v1.26h3.612V.256H9.81V.731A8.743,8.743,0,0,0,6.148,0a6.491,6.491,0,0,0-4.42,1.481A4.777,4.777,0,0,0,.018,5.209,4.615,4.615,0,0,0,1.6,8.817a10.308,10.308,0,0,0,5.054,1.949,10.324,10.324,0,0,1,2.958.774,1.116,1.116,0,0,1,.593,1.065,1.315,1.315,0,0,1-.757,1.2,4.639,4.639,0,0,1-2.325.5,4.168,4.168,0,0,1-2.4-.687,2.322,2.322,0,0,1-1.1-1.609V11.1H0v6.388H3.629v-.631a8.064,8.064,0,0,0,3.953.9,7.7,7.7,0,0,0,4.8-1.431,4.738,4.738,0,0,0,1.908-3.947,5.034,5.034,0,0,0-.875-2.928,4.934,4.934,0,0,0-2.2-1.8" transform="translate(263.501 12.871)" fill="#0a0b09"/>
    <g id="Group_15" data-name="Group 15" transform="translate(60.743)">
      <path id="Clip_13-2" data-name="Clip 13" d="M0,0H238.218V39.447H0Z" transform="translate(0.491 0.483)" fill="none"/>
      <g id="Group_15-2" data-name="Group 15" clip-path="url(#clip-path)">
        <path id="Fill_12" data-name="Fill 12" d="M9.526,18.169a9.866,9.866,0,0,1-6.715-2.452A8.432,8.432,0,0,1,0,9.077,8.586,8.586,0,0,1,2.733,2.554,8.925,8.925,0,0,1,9,0a9.268,9.268,0,0,1,6.273,2.488c1.873,1.66,2.858,4.149,2.929,7.4l.008.372H4.374A5.572,5.572,0,0,0,6,13.33a5.04,5.04,0,0,0,3.589,1.316,5.9,5.9,0,0,0,5.08-2.578l.172-.237,3.526,1.552-.232.358a9.027,9.027,0,0,1-3.785,3.345A11.285,11.285,0,0,1,9.526,18.169ZM9.082,3.353A4.352,4.352,0,0,0,6,4.527a5,5,0,0,0-1.5,2.65h9.524a5.752,5.752,0,0,0-1.6-2.519A4.617,4.617,0,0,0,9.082,3.353Z" transform="translate(220.338 12.666)" fill="#0a0b09"/>
        <path id="Fill_14" data-name="Fill 14" d="M23.83,5.776A19.756,19.756,0,0,0,0,2.64,19.757,19.757,0,0,1,4.091,5.781a19.715,19.715,0,0,1,0,27.894A19.776,19.776,0,0,1,.008,36.812,19.731,19.731,0,0,0,23.83,5.776" transform="translate(0.491 0.483)" fill="#2fa771"/>
      </g>
    </g>
    <path id="Fill_16" data-name="Fill 16" d="M13.953,3.141A19.757,19.757,0,0,0,9.862,0q-.426.247-.84.521t-.849.588A19.915,19.915,0,0,0,5.781,3.135a19.717,19.717,0,0,0,0,27.9c.224.229.465.441.7.652a19.967,19.967,0,0,0,2.228,1.753c.381.258.766.507,1.162.736a19.776,19.776,0,0,0,4.083-3.137,19.715,19.715,0,0,0,0-27.894" transform="translate(51.372 3.124)" fill="#1d2d31"/>
    <g id="Group_20" data-name="Group 20" transform="translate(9.591)">
      <path id="Clip_18-2" data-name="Clip 18" d="M0,0H51.381V39.44H0Z" transform="translate(0.272 0.496)" fill="none"/>
      <g id="Group_20-2" data-name="Group 20" clip-path="url(#clip-path-2)">
        <path id="Fill_17" data-name="Fill 17" d="M2.062,0H1.226a1.222,1.222,0,1,0,0,2.444h.837a1.218,1.218,0,0,0,1.22-1.219A1.224,1.224,0,0,0,2.062,0" transform="translate(10.14 37.488)" fill="#d1d863"/>
        <path id="Fill_19" data-name="Fill 19" d="M51.381,36.8a19.737,19.737,0,0,1-9.554,2.635q-.272.009-.559,0H15.085A1.222,1.222,0,0,1,14.962,37a.823.823,0,0,1,.123-.006h4.076a.823.823,0,0,1,.123.006H34.773a.735.735,0,1,0,0-1.47H29.705A19.689,19.689,0,0,1,25.176,30.8h-8.19a1,1,0,0,1-.123,0H1.226a1.219,1.219,0,1,1,0-2.439H30.856a.735.735,0,0,0,0-1.47H23.12a19.5,19.5,0,0,1-1.311-5.948H11.179a1.222,1.222,0,0,1,0-2.444H26.668a.735.735,0,1,0,0-1.47h-4.71a19.452,19.452,0,0,1,1.812-5.948H4.417a1.222,1.222,0,0,1,0-2.444H30.856a.732.732,0,0,0,0-1.464H26.279a18.34,18.34,0,0,1,1.268-1.4,19.557,19.557,0,0,1,4.433-3.323H20.429a1.222,1.222,0,1,1,0-2.444h21.4a19.7,19.7,0,0,1,9.543,2.626c-.282.165-.565.34-.842.522s-.565.383-.847.591a19.656,19.656,0,0,0-2.392,29.92c.224.229.464.442.7.65A18.6,18.6,0,0,0,50.22,36.06c.378.261.767.511,1.162.741" transform="translate(0.272 0.496)" fill="#d1d863"/>
      </g>
    </g>
    <path id="Fill_21" data-name="Fill 21" d="M8.312,1.22A1.219,1.219,0,0,1,7.087,2.444H1.226A1.222,1.222,0,1,1,1.226,0H7.087A1.225,1.225,0,0,1,8.312,1.22" transform="translate(19.688 0.496)" fill="#d1d863"/>
    <g id="Group_25" data-name="Group 25" transform="translate(0 18.637)">
      <path id="Clip_23-2" data-name="Clip 23" d="M0,0H19.091V2.445H0Z" transform="translate(0.032 0.352)" fill="none"/>
      <g id="Group_25-2" data-name="Group 25" clip-path="url(#clip-path-3)">
        <path id="Fill_22" data-name="Fill 22" d="M16.081,1.219a1.214,1.214,0,0,1-.357.868,1.228,1.228,0,0,1-.863.357H1.22A1.222,1.222,0,0,1,1.22,0H14.861a1.219,1.219,0,0,1,1.22,1.219" transform="translate(3.042 0.353)" fill="#d1d863"/>
        <path id="Fill_24" data-name="Fill 24" d="M.359.357v0a1.221,1.221,0,1,0,1.73,0,1.22,1.22,0,0,0-1.73,0" transform="translate(0 0.352)" fill="#d1d863"/>
      </g>
    </g>
    <path id="Fill_26" data-name="Fill 26" d="M2.087,2.085A1.222,1.222,0,0,0,.359.358v0a1.221,1.221,0,1,0,1.73,1.725" transform="translate(9.869 9.126)" fill="#d1d863"/>
  </g>
</svg>
